<svg width="1em" height="1em" viewBox="0 0 20 20" fill="none" xmlns="http://www.w3.org/2000/svg">
<path d="M9.97423 19.4816C9.77732 19.4816 9.60751 19.9942 9.41338 19.9829C7.2957 19.8598 5.35275 19.0747 3.78896 17.832C3.6192 17.697 3.59209 16.9537 3.59209 16.9537C3.59209 16.9537 3.03222 17.1684 2.9066 17.0419C1.18931 15.3122 0.0983435 12.9599 0.00636049 10.3578C0.00217589 10.239 1.02259 9.94083 1.02259 9.94083C1.02259 9.94083 0.0111708 9.45347 0.0329933 9.18448C0.237022 6.66754 1.37723 4.41106 3.10394 2.76452C3.2402 2.6346 3.87168 2.72158 3.87168 2.72158C3.87168 2.72158 3.83797 2.12655 4.00109 2.00382C5.52694 0.856188 7.39042 0.134481 9.41338 0.0168821C9.60751 0.00557982 10 0.504877 10 0.504877C10 0.504877 10.3926 0.00561892 10.5867 0.0168821C12.6064 0.134286 14.4671 0.853841 15.9916 1.99823C16.1546 2.1206 16.1467 2.72158 16.1467 2.72158C16.1467 2.72158 16.7525 2.62788 16.889 2.75776C18.6197 4.40485 19.7628 6.6641 19.9671 9.18448C19.9889 9.45347 19.3886 9.88425 19.3886 9.88425C19.3886 9.88425 19.9979 10.239 19.9937 10.3578C19.9016 12.9633 18.808 15.3182 17.0869 17.0486C16.9712 17.1649 16.3198 16.9105 16.3198 16.9105C16.3198 16.9105 16.385 17.6941 16.2039 17.8377C14.6414 19.0771 12.7011 19.86 10.5867 19.9829C10.3926 19.9942 10.1711 19.4816 9.97423 19.4816Z" fill="#DC784A"/>
<path d="M19.9673 9.18462C19.763 6.66424 18.6199 4.40499 16.8892 2.7579C16.7527 2.62802 16.1469 2.72172 16.1469 2.72172C16.1469 2.72172 16.1548 2.12078 15.9918 1.99841C14.4673 0.854024 12.6066 0.134469 10.5869 0.0170652C10.3928 0.00576292 10.0002 0.50506 10.0002 0.50506V19.4849C10.1905 19.5256 10.4012 19.9939 10.5869 19.9831C12.7013 19.8602 14.6416 19.0773 16.2041 17.8378C16.3851 17.6943 16.32 16.9106 16.32 16.9106C16.32 16.9106 16.9714 17.165 17.0871 17.0487C18.8082 15.3184 19.9018 12.9634 19.9939 10.3579C19.9981 10.2391 19.3888 9.88439 19.3888 9.88439C19.3888 9.88439 19.9891 9.45361 19.9673 9.18462Z" fill="#CB5C29"/>
<path d="M10.5866 6.197C11.8854 6.10705 13.1532 5.72266 14.285 5.07142C15.3032 4.48554 16.1893 3.69528 16.8889 2.75796C16.6051 2.4878 16.3053 2.23419 15.9914 1.99852C14.7193 3.7354 12.7377 4.84608 10.5866 5.0196V0.017677C10.3924 0.00637467 10.197 0 10 0C9.80307 0 9.60757 0.00637467 9.41339 0.017677V5.02031C7.26697 4.84897 5.27506 3.73806 4.00122 2.00419C3.68737 2.24025 3.38765 2.4941 3.10392 2.76465C3.81862 3.72015 4.72856 4.52211 5.77146 5.10975C6.88863 5.73924 8.13713 6.11085 9.41339 6.19771V9.18461H0.0334377C0.0116152 9.45364 0 9.72548 0 10C0 10.1198 0.00289402 10.2391 0.00707862 10.3579H9.41339V13.333C8.13713 13.4199 6.88863 13.7915 5.77146 14.421C4.62989 15.0642 3.64807 15.9646 2.90685 17.0417C3.18507 17.3219 3.47975 17.5857 3.78925 17.8317C5.04702 15.9236 7.14366 14.6916 9.41339 14.5104V19.9824C9.60757 19.9937 9.80307 20 10 20C10.197 20 10.3925 19.9937 10.5866 19.9824V14.5111C12.8613 14.6946 14.9466 15.9258 16.2036 17.8374C16.5133 17.5918 16.8082 17.3284 17.0866 17.0485C16.3596 15.9898 15.4016 15.1018 14.285 14.4593C13.1532 13.8081 11.8854 13.4236 10.5866 13.3337V10.3579H19.9929C19.9971 10.239 20 10.1198 20 10C20 9.72548 19.9884 9.45364 19.9666 9.18461H10.5866V6.197Z" fill="#9A421A"/>
<path d="M19.9929 10.3579C19.9971 10.2391 20 10.1199 20 10.0001C20 9.72554 19.9884 9.4537 19.9666 9.18467H10.5866V6.19702C11.8854 6.10707 13.1532 5.72268 14.285 5.07144C15.3032 4.48556 16.1893 3.6953 16.8889 2.75799C16.6051 2.48782 16.3053 2.23421 15.9914 1.99854C14.7193 3.73542 12.7377 4.8461 10.5866 5.01963V0.017738C10.3924 0.00643571 10.1969 6.10352e-05 10 6.10352e-05V20.0001C10.1969 20.0001 10.3925 19.9937 10.5866 19.9824V14.5112C12.8613 14.6947 14.9466 15.9258 16.2036 17.8375C16.5133 17.5918 16.8082 17.3284 17.0866 17.0485C16.3596 15.9899 15.4016 15.1019 14.285 14.4594C13.1532 13.8081 11.8854 13.4237 10.5866 13.3338V10.3579H19.9929Z" fill="#7B3210"/>
</svg>
