<svg width="1em" height="1.11em" viewBox="0 0 9 10" fill="none" xmlns="http://www.w3.org/2000/svg">
<path d="M8.37727 3.38636H6.38636C6.35 3.12879 6.27576 2.9 6.16364 2.7C6.05152 2.49697 5.90758 2.32424 5.73182 2.18182C5.55606 2.03939 5.35303 1.9303 5.12273 1.85455C4.89545 1.77879 4.64849 1.74091 4.38182 1.74091C3.9 1.74091 3.4803 1.86061 3.12273 2.1C2.76515 2.33636 2.48788 2.68182 2.29091 3.13636C2.09394 3.58788 1.99545 4.13636 1.99545 4.78182C1.99545 5.44545 2.09394 6.00303 2.29091 6.45455C2.49091 6.90606 2.7697 7.24697 3.12727 7.47727C3.48485 7.70758 3.89849 7.82273 4.36818 7.82273C4.63182 7.82273 4.87576 7.78788 5.1 7.71818C5.32727 7.64849 5.52879 7.54697 5.70455 7.41364C5.8803 7.27727 6.02576 7.11212 6.14091 6.91818C6.25909 6.72424 6.34091 6.50303 6.38636 6.25455L8.37727 6.26364C8.32576 6.69091 8.19697 7.10303 7.99091 7.5C7.78788 7.89394 7.51364 8.24697 7.16818 8.55909C6.82576 8.86818 6.41667 9.11364 5.94091 9.29545C5.46818 9.47424 4.93333 9.56364 4.33636 9.56364C3.50606 9.56364 2.76364 9.37576 2.10909 9C1.45758 8.62424 0.942424 8.0803 0.563636 7.36818C0.187879 6.65606 0 5.79394 0 4.78182C0 3.76667 0.190909 2.90303 0.572727 2.19091C0.954546 1.47879 1.47273 0.936364 2.12727 0.563637C2.78182 0.187879 3.51818 0 4.33636 0C4.87576 0 5.37576 0.0757576 5.83636 0.227273C6.3 0.378788 6.71061 0.6 7.06818 0.890909C7.42576 1.17879 7.71667 1.53182 7.94091 1.95C8.16818 2.36818 8.31364 2.84697 8.37727 3.38636Z" fill="currentColor"/>
</svg>
