<svg width="1em" height="0.8em" viewBox="0 0 25 20" fill="none" xmlns="http://www.w3.org/2000/svg">
<path fill-rule="evenodd" clip-rule="evenodd" d="M13.1192 4.89202C14.1158 4.56269 14.8351 3.62361 14.8351 2.51655C14.8351 1.13514 13.7152 0.0152893 12.3338 0.0152893C10.9524 0.0152893 9.83254 1.13514 9.83254 2.51655C9.83254 3.58713 10.5051 4.50061 11.4508 4.85749C9.08507 13.3906 4.69037 9.49883 3.28039 6.20374C3.89944 5.82481 4.31251 5.14231 4.31251 4.36333C4.31251 3.17246 3.34712 2.20707 2.15626 2.20707C0.965389 2.20707 0 3.17246 0 4.36333C0 5.49468 0.871301 6.42252 1.97948 6.51244C1.98093 6.52452 1.98283 6.53663 1.98519 6.54875L3.71629 15.4403C3.76202 15.6752 3.96777 15.8447 4.20708 15.8447H20.4605C20.6998 15.8447 20.9056 15.6752 20.9513 15.4403L22.6824 6.54875C22.6843 6.53902 22.6859 6.52929 22.6872 6.51958C23.8765 6.51774 24.8401 5.55306 24.8401 4.36333C24.8401 3.17246 23.8747 2.20707 22.6838 2.20707C21.493 2.20707 20.5276 3.17246 20.5276 4.36333C20.5276 5.07496 20.8723 5.70607 21.4039 6.09877C21.3935 6.1152 21.3839 6.1323 21.3753 6.15002C17.7967 13.5142 14.1895 8.79682 13.1192 4.89202ZM4.57127 16.8798C3.76148 16.8798 3.10501 17.5362 3.10501 18.346C3.10501 19.1558 3.76147 19.8123 4.57126 19.8123H20.0963C20.9061 19.8123 21.5626 19.1558 21.5626 18.346C21.5626 17.5362 20.9061 16.8798 20.0963 16.8798H4.57127Z" fill="currentColor"/>
</svg>
