<svg width="1em" height="1em" viewBox="0 0 20 20" fill="none" xmlns="http://www.w3.org/2000/svg">
<path d="M-7.24783e-05 10C-7.241e-05 8.43734 0.360234 6.95724 1.00212 5.63839C1.28092 5.06557 2.40506 5.31536 2.78366 4.80981C3.12516 4.35384 2.71241 3.1357 3.12508 2.7445C4.91844 1.0443 7.33952 2.99714e-05 9.99991 3.00877e-05C10.4584 3.01077e-05 10.9098 0.031043 11.352 0.0910743C11.9013 0.165654 12.4365 2.01724 12.9539 2.1775C13.5453 2.36073 14.1134 0.865185 14.6525 1.14974C17.2874 2.54051 19.2298 5.07375 19.8161 8.08568C19.9367 8.70547 18.6562 9.34551 18.6562 10C18.6562 10.6328 19.9409 11.2521 19.8279 11.8526C19.269 14.8246 17.3908 17.337 14.827 18.756C14.3059 19.0444 13.0134 18.5446 12.4409 18.7374C11.8526 18.9355 11.9831 19.8233 11.352 19.9089C10.9098 19.969 10.4584 20 9.99995 20C7.33956 20 4.91847 18.9557 3.12508 17.2556C2.72762 16.8788 3.04377 15.7871 2.71221 15.3501C2.3178 14.8303 1.29023 14.9536 1.00216 14.3616C0.360193 13.0428 -7.25466e-05 11.5627 -7.24783e-05 10Z" fill="#222728"/>
<path d="M11.352 19.9089C11.9831 19.8232 11.8526 18.9355 12.4409 18.7374C13.0133 18.5446 14.3058 19.0444 14.8269 18.7559C17.3907 17.337 19.269 14.8246 19.8279 11.8526C19.9407 11.2529 18.6596 10.6344 18.6564 10.0024L-3.26559e-05 10.0024C0.00035836 11.5642 0.360547 13.0435 1.00212 14.3616C1.29023 14.9536 2.31777 14.8303 2.71217 15.3501C3.04374 15.7871 2.72762 16.8788 3.12504 17.2556C4.91844 18.9557 7.33952 20 9.99991 20C10.4584 20 10.9097 19.969 11.352 19.9089V19.9089Z" fill="#040404"/>
<path d="M13.8748 8.10384L13.8725 11.5443C13.8724 11.7209 13.9518 11.888 14.0887 11.9995L16.079 13.6207C16.2694 13.7758 16.5363 13.7958 16.7478 13.6709L19.8273 11.8525C19.9402 11.2519 20 10.6329 20 10C20 9.36719 19.9402 8.74815 19.8273 8.1476L16.756 6.33395C16.5662 6.22191 16.3298 6.22562 16.1436 6.34357L14.1474 7.60873C13.9778 7.71624 13.875 7.90302 13.8748 8.10384Z" fill="#FFF4F4"/>
<path d="M12.8589 12.8569L9.6265 13.9048C9.44551 13.9635 9.30421 14.1064 9.24746 14.288L8.43964 16.8743C8.37065 17.0952 8.43792 17.3359 8.61137 17.489L11.352 19.9083C12.5971 19.7392 13.7701 19.3402 14.8267 18.7554L15.6234 15.1804C15.6717 14.9637 15.5935 14.7382 15.4213 14.598L13.4103 12.9601C13.2559 12.8344 13.0483 12.7955 12.8589 12.8569V12.8569Z" fill="#C9C8C7"/>
<path d="M8.04785 13.4018L6.05625 10.6568C5.93541 10.4902 5.73615 10.3992 5.53114 10.4168L2.95214 10.6387C2.73732 10.6572 2.54995 10.792 2.46419 10.9899L1.00255 14.3615C1.53282 15.451 2.25515 16.4304 3.12539 17.2554L6.82497 16.9032C7.06013 16.8809 7.25891 16.7196 7.32935 16.4942L8.13303 13.9212C8.18821 13.7443 8.15665 13.5517 8.04785 13.4018V13.4018Z" fill="#C9C8C7"/>
<path d="M9.59078 5.63733L12.9454 6.7297C13.1116 6.78383 13.2934 6.76099 13.441 6.6674L15.3331 5.4683C15.5474 5.33244 15.6501 5.07417 15.5876 4.82825L14.6523 1.15039C13.6416 0.616913 12.5292 0.251563 11.3521 0.0917662L8.58878 2.53119C8.40607 2.69247 8.34212 2.94996 8.42812 3.178L9.22351 5.28656C9.28636 5.45317 9.42148 5.58222 9.59078 5.63733Z" fill="#FFF4F4"/>
<path d="M5.98198 8.9976L8.02641 6.18755C8.14264 6.02779 8.17065 5.82025 8.10092 5.63538L7.28429 3.47054C7.20525 3.26104 7.0139 3.11481 6.79102 3.09361L3.12523 2.74469C2.25499 3.56968 1.53266 4.54907 1.00239 5.63855L2.50216 9.09807C2.60247 9.32944 2.83943 9.47081 3.09066 9.44923L5.55793 9.23695C5.72727 9.22236 5.88198 9.13507 5.98198 8.9976V8.9976Z" fill="#FFF4F4"/>
<path d="M16.7478 13.6709L19.8273 11.8524C19.9401 11.2527 19.9998 10.6344 20 10.0024L13.8736 10.0024L13.8726 11.5443C13.8725 11.7208 13.9518 11.888 14.0887 11.9995L16.0791 13.6206C16.2695 13.7757 16.5364 13.7958 16.7478 13.6709V13.6709Z" fill="#C9C8C7"/>
</svg>
