<svg width="1em" height="0.734em" viewBox="0 0 49 36" fill="none" xmlns="http://www.w3.org/2000/svg">
<path d="M29.649 20.8357L29.5596 20.7393C29.4806 20.6393 21.6619 10.725 20.2971 8.97596C19.4348 7.87204 19.0406 7.55903 17.1431 8.90985C16.3691 9.46088 15.9294 10.056 15.8358 10.679C15.7164 11.4732 16.1972 12.1223 16.202 12.1289L25.7463 24.2379C25.8799 24.3535 26.345 24.7321 26.9468 24.9608C27.7831 25.2787 28.4907 25.1708 29.1104 24.6296C29.9319 23.9116 30.3532 23.1877 30.3621 22.4778C30.3739 21.5295 29.6561 20.8425 29.649 20.8357Z" fill="currentColor"/>
<path d="M25.4039 9.11982C25.778 8.733 26.2873 8.62696 26.649 8.65335L28.7969 8.54987C27.3984 6.75618 26.1988 5.22877 25.7341 4.6656C25.1934 4.01016 24.634 3.33277 22.5289 4.90876C20.8152 6.19184 21.3691 7.63492 21.5259 7.96171L25.6255 13.0957C25.2676 12.3188 25.0495 11.572 24.9631 10.9876C24.8424 10.1759 24.9908 9.54751 25.4039 9.11982Z" fill="currentColor"/>
<path d="M31.5831 1.25802C30.3423 -0.207717 30.0845 -0.513712 27.8838 0.989169C27.2095 1.44933 26.821 1.94663 26.7286 2.46729C26.6246 3.05569 26.9305 3.55019 26.9755 3.61933L30.7807 8.45405L37.0949 8.15016C34.7474 5.18434 32.2795 2.08047 31.5831 1.25802Z" fill="currentColor"/>
<path d="M31.8623 20.7254C31.8623 20.7254 31.6076 20.5537 31.5066 20.4477L31.2719 20.1713L28.2198 16.3492C29.2251 17.0628 30.4745 17.5185 31.9929 17.4583C33.3959 17.4027 34.6212 17.3466 35.611 17.2983C35.8258 17.587 36.1157 18.0903 36.1039 18.6946C36.0989 18.9408 36.0411 19.1887 35.9375 19.4374C35.7446 19.9013 35.3836 20.3683 34.8522 20.8326C34.2327 21.3738 33.525 21.482 32.6886 21.1641C32.3659 21.0415 32.0848 20.8763 31.8705 20.731L31.8623 20.7254Z" fill="currentColor"/>
<path d="M45.8701 15.6787L42.1559 11.0231C42.1482 11.0138 42.1412 11.0042 42.1339 10.9946C42.1307 10.9902 41.5579 10.2308 40.7372 9.96523C40.1339 9.77019 39.1112 9.74169 38.7525 9.74706L26.6678 10.3289C26.6127 10.3315 26.5968 10.3359 26.5651 10.332C26.5533 10.4011 26.5469 10.5314 26.5772 10.7349C26.741 11.8397 28.1309 15.9352 31.9344 15.7843C35.0939 15.6588 37.367 15.5311 37.9942 15.4944C38.0934 15.4818 38.1856 15.479 38.2677 15.4844C38.6981 15.5122 39.0331 15.8791 39.0322 16.3215C39.032 16.582 38.9136 16.8134 38.73 16.9671C38.7224 17.0041 38.7161 17.041 38.7036 17.0774C38.684 17.1356 37.549 20.5861 39.4118 23.8495C39.6485 24.2634 39.5126 24.796 39.1093 25.0387C38.9871 25.1122 38.854 25.1508 38.7215 25.1571C38.417 25.1718 38.1153 25.0167 37.9505 24.7282C37.258 23.5147 36.9043 22.2947 36.7473 21.1787C36.2505 21.7953 35.6162 22.3599 34.9332 22.6629C34.2027 22.9868 33.0689 23.1022 31.8702 22.5947C31.8484 22.7857 31.8154 22.9803 31.7749 23.1805C31.4219 24.9244 29.8411 26.2872 28.5787 26.5499C26.5578 26.9713 24.8027 25.5873 24.4432 25.194C24.4104 25.1582 24.3822 25.1223 24.3574 25.0863L14.2298 12.4052L5.73016 1.18667C5.69739 1.14322 5.66894 1.09697 5.64504 1.04815C5.64504 1.04815 5.29047 0.377064 4.58384 0.210051C4.44888 0.178284 4.30528 0.165904 4.15439 0.173378C3.6082 0.19954 2.96574 0.481242 2.26821 1.00424C1.4207 1.64005 0.966908 2.29479 0.920482 2.94953C0.862676 3.75913 1.45393 4.39518 1.45985 4.40149C1.48329 4.42508 1.50536 4.45007 1.52562 4.47623C1.59867 4.57013 8.91537 14.0004 17.5636 26.0143C24.4158 35.5331 30.3366 36.2437 34.1909 35.9496C39.2233 35.5658 43.5424 32.7957 46.041 28.3495C48.8188 23.4057 48.7646 19.3796 45.8701 15.6787Z" fill="currentColor"/>
</svg>
