<svg width="108" height="35" viewBox="0 0 108 35" fill="none" xmlns="http://www.w3.org/2000/svg">
<path fill-rule="evenodd" clip-rule="evenodd" d="M4.18809 9.49883H0V5.65988H4.18809V9.49883ZM4.18809 26.9654H0V11.3454H4.18809V26.9654Z" fill="#F3E300"/>
<path fill-rule="evenodd" clip-rule="evenodd" d="M16.3904 26.9651H20.43V5.89407H16.2717V13.3964H16.2123C15.1031 11.7553 13.5784 10.9346 11.6378 10.9346C9.47964 10.9346 7.80615 11.775 6.61835 13.4551C5.5884 14.9402 5.07373 16.7962 5.07373 19.023C5.07373 20.6643 5.32134 22.1005 5.81595 23.3313C6.31158 24.5427 7.1233 25.5291 8.25173 26.2911C9.38056 27.0528 10.618 27.4336 11.9647 27.4336C13.8854 27.4336 15.3412 26.6333 16.3311 25.0313H16.3904V26.9651ZM12.9154 14.481C15.2717 14.481 16.4498 16.1613 16.4498 19.5215C16.4498 20.6939 16.1627 21.7099 15.5884 22.5692C14.9151 23.5464 14.014 24.0348 12.8856 24.0348C11.717 24.0348 10.806 23.507 10.1532 22.452C9.61824 21.5729 9.35077 20.5181 9.35077 19.2868C9.35077 16.083 10.5392 14.481 12.9154 14.481Z" fill="#F3E300"/>
<path fill-rule="evenodd" clip-rule="evenodd" d="M32.4537 26.9651H36.4935V5.89407H32.335V13.3964H32.2758C31.1664 11.7553 29.6419 10.9346 27.7011 10.9346C25.5431 10.9346 23.8696 11.775 22.6816 13.4551C21.6519 14.9402 21.1372 16.7962 21.1372 19.023C21.1372 20.6643 21.3844 22.1005 21.8794 23.3313C22.3749 24.5427 23.1868 25.5291 24.3148 26.2911C25.444 27.0528 26.6815 27.4336 28.0279 27.4336C29.9486 27.4336 31.4043 26.6333 32.3943 25.0313H32.4537V26.9651ZM28.9789 14.481C31.3352 14.481 32.5131 16.1613 32.5131 19.5215C32.5131 20.6939 32.2262 21.7099 31.6519 22.5692C30.9784 23.5464 30.0775 24.0348 28.9491 24.0348C27.7805 24.0348 26.8695 23.507 26.2162 22.452C25.6817 21.5729 25.414 20.5181 25.414 19.2868C25.414 16.083 26.6025 14.481 28.9789 14.481Z" fill="#F3E300"/>
<path fill-rule="evenodd" clip-rule="evenodd" d="M47.537 26.9651H51.4281V17.3234C51.4281 13.123 49.1805 11.0032 44.6853 10.9641C43.3783 10.9641 42.1903 11.1596 41.1213 11.5504C39.0818 12.3125 37.9625 13.9439 37.7646 16.4444H41.7447C41.8242 15.741 42.1111 15.1841 42.6065 14.7741C43.1212 14.3636 43.7451 14.1583 44.4772 14.1583C45.131 14.1583 45.715 14.3342 46.2299 14.6861C46.745 15.0373 47.0023 15.5263 47.0023 16.1514C47.0023 16.8352 46.1608 17.2846 44.4772 17.4994C42.101 17.7925 40.527 18.1243 39.7547 18.496C38.0715 19.2969 37.2302 20.7622 37.2302 22.8917C37.2302 24.3376 37.7546 25.4509 38.8042 26.2326C39.7547 26.936 40.9924 27.287 42.5172 27.287C44.636 27.287 46.1804 26.7602 47.151 25.7048C47.2892 26.3305 47.4179 26.7504 47.537 26.9651ZM44.8042 20.1371C45.8538 19.9417 46.5861 19.6777 47.0023 19.3456C47.0023 19.5215 47.0124 19.7754 47.0319 20.1076C47.0515 20.42 47.0617 20.6643 47.0617 20.8403C47.0617 21.8369 46.8538 22.5889 46.438 23.097C46.1014 23.4877 45.6259 23.8098 45.0121 24.0639C44.3983 24.3179 43.8144 24.4448 43.2596 24.4448C42.0122 24.4448 41.3887 23.859 41.3887 22.6865C41.3887 21.7875 41.7549 21.1433 42.4874 20.7524C42.8639 20.5572 43.6357 20.3519 44.8042 20.1371Z" fill="#F3E300"/>
<path fill-rule="evenodd" clip-rule="evenodd" d="M62.472 26.9651H66.3629V17.3234C66.3629 13.123 64.1153 11.0032 59.6203 10.9641C58.3131 10.9641 57.1251 11.1596 56.0561 11.5504C54.0166 12.3125 52.8973 13.9439 52.6994 16.4444H56.6798C56.759 15.741 57.0459 15.1841 57.5413 14.7741C58.056 14.3636 58.6799 14.1583 59.412 14.1583C60.0657 14.1583 60.65 14.3342 61.1649 14.6861C61.6798 15.0373 61.9371 15.5263 61.9371 16.1514C61.9371 16.8352 61.0956 17.2846 59.412 17.4994C57.036 17.7925 55.4618 18.1243 54.6896 18.496C53.0063 19.2969 52.165 20.7622 52.165 22.8917C52.165 24.3376 52.6894 25.4509 53.739 26.2326C54.6896 26.936 55.9272 27.287 57.452 27.287C59.5708 27.287 61.1157 26.7602 62.0858 25.7048C62.224 26.3305 62.3529 26.7504 62.472 26.9651ZM59.7392 20.1371C60.7886 19.9417 61.5209 19.6777 61.9371 19.3456C61.9371 19.5215 61.9472 19.7754 61.9665 20.1076C61.9864 20.42 61.9965 20.6643 61.9965 20.8403C61.9965 21.8369 61.7884 22.5889 61.3728 23.097C61.036 23.4877 60.5607 23.8098 59.9469 24.0639C59.3334 24.3179 58.7494 24.4448 58.1944 24.4448C56.947 24.4448 56.3235 23.859 56.3235 22.6865C56.3235 21.7875 56.6897 21.1433 57.422 20.7524C57.7987 20.5572 58.5707 20.3519 59.7392 20.1371Z" fill="#F3E300"/>
<path d="M91.3666 19.3338L91.287 19.254C91.2167 19.1714 84.2552 10.9748 83.0401 9.52871C82.2723 8.61604 81.9214 8.35727 80.2319 9.47406C79.5428 9.92962 79.1513 10.4217 79.068 10.9367C78.9616 11.5933 79.3898 12.13 79.394 12.1354L87.8918 22.1465C88.0107 22.2421 88.4249 22.5551 88.9606 22.7442C89.7053 23.007 90.3353 22.9178 90.887 22.4703C91.6185 21.8767 91.9936 21.2782 92.0015 20.6914C92.012 19.9073 91.3729 19.3394 91.3666 19.3338" fill="#F3E300"/>
<path d="M88.7173 10.6477C88.6683 10.65 88.6541 10.6535 88.6259 10.6502C88.6154 10.7076 88.6097 10.8153 88.6367 10.9833C88.7826 11.897 90.02 15.2827 93.4065 15.1579C94.184 15.1293 94.8984 15.1006 95.541 15.0731C94.6409 13.9925 93.1646 12.2216 91.734 10.5129L88.7173 10.6477Z" fill="#F3E300"/>
<path d="M87.5928 9.64778C87.9259 9.32798 88.3794 9.24031 88.7013 9.26213L90.6137 9.17658C89.3686 7.69364 88.3005 6.43086 87.8868 5.96526C87.4053 5.42338 86.9073 4.86334 85.033 6.16629C83.5072 7.22708 84.0004 8.42014 84.14 8.69031L87.7901 12.9348C87.4714 12.2925 87.2773 11.6751 87.2003 11.1919C87.0929 10.5209 87.225 10.0014 87.5928 9.64778" fill="#F3E300"/>
<path d="M93.094 3.14835C91.9893 1.93655 91.7597 1.68357 89.8003 2.92607C89.1999 3.30651 88.854 3.71765 88.7718 4.14811C88.6792 4.63456 88.9515 5.04339 88.9916 5.10055L92.3795 9.09766L98.0014 8.84642C95.9113 6.39443 93.714 3.82831 93.094 3.14835" fill="#F3E300"/>
<path d="M101.878 17.0942C102.605 16.5044 102.98 15.9096 102.992 15.3266C103.01 14.5412 102.361 13.9601 102.354 13.9543L102.278 13.8774C102.245 13.8382 100.845 12.1875 99.1387 10.182L93.5117 10.4334L97.3742 14.9906C98.0735 14.9571 98.5677 14.9311 98.8017 14.9183C98.8902 14.9079 98.9723 14.9056 99.0455 14.91C99.4286 14.933 99.7269 15.2364 99.7261 15.6022" fill="#F3E300"/>
<path d="M93.3461 19.2427C93.3461 19.2427 93.1193 19.1007 93.0294 19.013L92.8205 18.7846L90.103 15.6246C90.998 16.2146 92.1104 16.5914 93.4624 16.5415C94.7116 16.4956 95.8025 16.4492 96.6837 16.4093C96.875 16.648 97.1332 17.0641 97.1226 17.5637C97.1182 17.7673 97.0667 17.9721 96.9745 18.1778C96.8027 18.5613 96.4813 18.9474 96.0082 19.3313C95.4566 19.7787 94.8265 19.8682 94.0818 19.6053C93.7945 19.5039 93.5442 19.3674 93.3534 19.2473L93.3461 19.2427Z" fill="#F3E300"/>
<path d="M105.814 15.0707L102.507 11.2217C102.5 11.214 102.494 11.2061 102.488 11.1982C102.485 11.1945 101.975 10.5667 101.244 10.3471C100.707 10.1858 99.7963 10.1623 99.4769 10.1667L88.7173 10.6478C88.6682 10.6499 88.654 10.6536 88.6259 10.6503C88.6153 10.7074 88.6097 10.8152 88.6366 10.9834C88.7825 11.8968 90.0199 15.2827 93.4064 15.158C96.2195 15.0543 98.2433 14.9487 98.8018 14.9183C98.8901 14.9079 98.9722 14.9056 99.0453 14.91C99.4285 14.933 99.7268 15.2364 99.726 15.6022C99.7258 15.8175 99.6204 16.0089 99.4569 16.1359C99.4502 16.1664 99.4445 16.197 99.4334 16.2271C99.4159 16.2752 98.4054 19.1279 100.064 21.8259C100.275 22.1681 100.154 22.6084 99.7947 22.809C99.6858 22.8699 99.5673 22.9017 99.4494 22.9069C99.1783 22.9191 98.9096 22.7909 98.7629 22.5524C98.1463 21.5491 97.8314 20.5405 97.6916 19.6178C97.2493 20.1276 96.6845 20.5944 96.0765 20.8449C95.426 21.1127 94.4165 21.2081 93.3493 20.7885C93.3298 20.9464 93.3005 21.1073 93.2644 21.2728C92.9501 22.7146 91.5427 23.8412 90.4187 24.0585C88.6194 24.4069 87.0567 23.2627 86.7366 22.9375C86.7074 22.9079 86.6823 22.8782 86.6602 22.8484L77.6431 12.3644L70.0754 3.08942C70.0462 3.0535 70.0209 3.01527 69.9996 2.9749C69.9996 2.9749 69.6839 2.42008 69.0548 2.28201C68.9346 2.25574 68.8068 2.24551 68.6724 2.25169C68.1861 2.27332 67.6141 2.50621 66.993 2.9386C66.2385 3.46426 65.8344 4.00556 65.7931 4.54687C65.7416 5.2162 66.268 5.74206 66.2733 5.74727C66.2942 5.76678 66.3138 5.78744 66.3319 5.80907C66.3969 5.8867 72.9114 13.6832 80.6114 23.6157C86.7123 31.4853 91.9838 32.0728 95.4155 31.8297C99.8962 31.5124 103.742 29.2222 105.966 25.5463C108.44 21.459 108.391 18.1304 105.814 15.0707" fill="#F3E300"/>
</svg>
