<svg width="1em" height="1em" viewBox="0 0 20 20" fill="none" xmlns="http://www.w3.org/2000/svg">
<mask id="mask0_1_3490" style="mask-type:luminance" maskUnits="userSpaceOnUse" x="0" y="0" width="20" height="20">
<circle cx="10" cy="10" r="10" transform="rotate(-180 10 10)" fill="white"/>
</mask>
<g mask="url(#mask0_1_3490)">
<circle cx="10" cy="10" r="10" transform="rotate(-180 10 10)" fill="#A9D023"/>
</g>
<mask id="mask1_1_3490" style="mask-type:luminance" maskUnits="userSpaceOnUse" x="0" y="0" width="20" height="20">
<circle cx="10" cy="10" r="10" transform="rotate(-180 10 10)" fill="white"/>
</mask>
<g mask="url(#mask1_1_3490)">
<path d="M6.8125 6.87503C8.1875 5.43753 8.9375 3.50003 9 1.50003C9 1.00003 9.1875 0.500031 9.4375 3.05176e-05C4.375 0.312531 0.3125 4.31253 0.0625 9.37503C0.5 9.12503 1 9.00003 1.5625 8.93753C3.5 9.00003 5.375 8.18753 6.8125 6.87503Z" fill="#A9D023"/>
<path d="M13.125 13.1875C11.75 14.625 11 16.5625 10.9375 18.5625C10.9375 19.0625 10.75 19.5625 10.5 20C15.625 19.6875 19.6875 15.625 19.9375 10.5625C19.5 10.8125 19 11 18.4375 11C16.5 11.0625 14.625 11.8125 13.125 13.1875Z" fill="#A9D023"/>
<path d="M10.4375 1.50003C10.4375 3.87503 9.5 6.18753 7.875 7.87503C6.125 9.50003 3.875 10.4375 1.5 10.4375C0.875 10.4375 0.3125 10.8125 0.125 11.3125C0.75 15.6875 4.1875 19.1875 8.625 19.8125C9.1875 19.5625 9.5625 19 9.5625 18.375C9.5625 16 10.5 13.6875 12.125 12C13.875 10.375 16.125 9.50003 18.5 9.43753C19.125 9.43753 19.6875 9.06253 19.9375 8.50003C19.3125 4.06253 15.875 0.62503 11.4375 3.00407e-05C10.8125 0.31253 10.4375 0.875031 10.4375 1.50003Z" fill="#A9D023"/>
<path d="M18.5625 9.56253C16.1875 9.56253 13.875 10.5 12.125 12.125C10.5 13.875 9.5625 16.1875 9.5 18.625C9.5 19.25 9.125 19.8125 8.5625 20.0625C9 20.125 9.5 20.1875 10 20.1875C10.1875 20.1875 10.375 20.1875 10.5625 20.1875C10.8125 19.75 10.9375 19.25 11 18.75C11 16.75 11.8125 14.8125 13.1875 13.3125C14.6875 11.9375 16.5625 11.1875 18.625 11.125C19.125 11.125 19.6875 11 20.125 10.6875C20.125 10.5 20.125 10.3125 20.125 10.0625C20.125 9.56253 20.0625 9.12503 20 8.68753C19.75 9.18753 19.1875 9.56253 18.5625 9.56253Z" fill="white"/>
<path d="M8.9375 1.37503C8.875 3.37503 8.125 5.31253 6.75 6.81253C5.25 8.18753 3.375 8.93753 1.3125 9.00003C0.8125 9.00003 0.25 9.18753 -0.1875 9.43753C-0.1875 9.62503 -0.1875 9.81253 -0.1875 10C-0.1875 10.5 -0.125 10.9375 -0.0624998 11.4375C0.1875 10.875 0.75 10.5 1.375 10.5C3.8125 10.5 6.125 9.56253 7.875 7.87503C9.5 6.12503 10.4375 3.81253 10.5 1.37503C10.5 0.75003 10.875 0.187531 11.4375 -0.0624692C11 -0.124969 10.5 -0.18747 10 -0.18747C9.8125 -0.18747 9.625 -0.18747 9.4375 -0.18747C9.125 0.37503 9 0.87503 8.9375 1.37503Z" fill="white"/>
</g>
<mask id="mask2_1_3490" style="mask-type:luminance" maskUnits="userSpaceOnUse" x="0" y="0" width="20" height="20">
<circle cx="10" cy="10" r="10" transform="rotate(-180 10 10)" fill="white"/>
</mask>
<g mask="url(#mask2_1_3490)">
<path opacity="0.1" d="M17.0625 2.93753C20.9375 6.81253 20.9375 13.1875 17.0625 17.0625C13.1875 20.9375 6.8125 20.9375 2.9375 17.0625" fill="#50A80C"/>
</g>
</svg>
