<svg width="1em" height="1.2em" viewBox="0 0 15 18" fill="none" xmlns="http://www.w3.org/2000/svg">
<path fill-rule="evenodd" clip-rule="evenodd" d="M13.5938 3.64284C13.8525 3.64284 14.0625 3.40284 14.0625 3.10713V2.0357C14.0625 1.73999 13.8525 1.49999 13.5938 1.49999H10.0781L9.80272 0.873864C9.69561 0.628045 9.41365 0.428558 9.17336 0.428558H5.82155C5.58211 0.428558 5.30245 0.628045 5.19728 0.873864L4.92188 1.49999H1.40625C1.1475 1.49999 0.9375 1.73999 0.9375 2.0357V3.10713C0.9375 3.40284 1.1475 3.64284 1.40625 3.64284H13.5938ZM11.7188 17.5714C12.495 17.5714 13.125 16.8514 13.125 15.9643V4.71427H1.875V15.9643C1.875 16.8514 2.505 17.5714 3.28125 17.5714H11.7188ZM10.3125 15.4286C10.0537 15.4286 9.84375 15.1886 9.84375 14.8928V7.39284C9.84375 7.09713 10.0537 6.85713 10.3125 6.85713C10.5713 6.85713 10.7812 7.09713 10.7812 7.39284V14.8928C10.7812 15.1886 10.5713 15.4286 10.3125 15.4286ZM7.5 15.4286C7.24125 15.4286 7.03125 15.1886 7.03125 14.8928V7.39284C7.03125 7.09713 7.24125 6.85713 7.5 6.85713C7.75875 6.85713 7.96875 7.09713 7.96875 7.39284V14.8928C7.96875 15.1886 7.75875 15.4286 7.5 15.4286ZM4.6875 15.4286C4.42875 15.4286 4.21875 15.1886 4.21875 14.8928V7.39284C4.21875 7.09713 4.42875 6.85713 4.6875 6.85713C4.94625 6.85713 5.15625 7.09713 5.15625 7.39284V14.8928C5.15625 15.1886 4.94625 15.4286 4.6875 15.4286Z" fill="currentColor"/>
</svg>
