<svg width="1em" height="1em" viewBox="0 0 10 10" fill="none" xmlns="http://www.w3.org/2000/svg">
<path d="M9.57248 0.625003H7.16176L6.97292 0.259769C6.93292 0.181686 6.8713 0.116004 6.795 0.0701125C6.71869 0.024221 6.63073 -5.91399e-05 6.541 3.42436e-06H4.2448C4.15528 -0.000331156 4.06747 0.0238585 3.99143 0.069801C3.9154 0.115743 3.85421 0.18158 3.81489 0.259769L3.62605 0.625003H1.21533C1.13009 0.625003 1.04833 0.657927 0.98805 0.716532C0.92777 0.775137 0.893906 0.854623 0.893906 0.937503L0.893906 1.5625C0.893906 1.64538 0.92777 1.72487 0.98805 1.78347C1.04833 1.84208 1.13009 1.875 1.21533 1.875H9.57248C9.65773 1.875 9.73948 1.84208 9.79976 1.78347C9.86004 1.72487 9.89391 1.64538 9.89391 1.5625V0.937503C9.89391 0.854623 9.86004 0.775137 9.79976 0.716532C9.73948 0.657927 9.65773 0.625003 9.57248 0.625003ZM1.96266 9.12109C1.97799 9.3591 2.08604 9.58249 2.26481 9.74577C2.44358 9.90906 2.67964 9.99997 2.92493 10H7.86288C8.10817 9.99997 8.34423 9.90906 8.523 9.74577C8.70178 9.58249 8.80982 9.3591 8.82516 9.12109L9.25105 2.5H1.53676L1.96266 9.12109Z" fill="currentColor"/>
</svg>
