<svg width="30" height="23" viewBox="0 0 8 6" fill="none" xmlns="http://www.w3.org/2000/svg">
<path d="M7.40282 0.572723C7.35572 0.525234 7.29968 0.48754 7.23794 0.461818C7.1762 0.436095 7.10997 0.422852 7.04309 0.422852C6.9762 0.422852 6.90998 0.436095 6.84823 0.461818C6.78649 0.48754 6.73045 0.525234 6.68335 0.572723L2.90869 4.35246L1.32282 2.76152C1.27392 2.71428 1.21619 2.67714 1.15293 2.65221C1.08967 2.62728 1.02211 2.61505 0.95413 2.61623C0.886145 2.6174 0.819057 2.63196 0.756698 2.65906C0.694338 2.68616 0.637927 2.72529 0.590686 2.77419C0.543446 2.82309 0.5063 2.88082 0.48137 2.94408C0.45644 3.00734 0.444214 3.07489 0.44539 3.14288C0.446566 3.21086 0.461122 3.27795 0.488225 3.34031C0.515328 3.40267 0.554449 3.45908 0.603353 3.50632L2.54895 5.45192C2.59605 5.49941 2.65209 5.5371 2.71383 5.56283C2.77558 5.58855 2.8418 5.60179 2.90869 5.60179C2.97557 5.60179 3.0418 5.58855 3.10354 5.56283C3.16528 5.5371 3.22132 5.49941 3.26842 5.45192L7.40282 1.31752C7.45425 1.27008 7.49529 1.21249 7.52337 1.1484C7.55144 1.08431 7.56593 1.01509 7.56593 0.945123C7.56593 0.875151 7.55144 0.805938 7.52337 0.741845C7.49529 0.677752 7.45425 0.620168 7.40282 0.572723Z" fill="#F7E102"/>
</svg>
